<svg t="1736837159698" class="icon" viewBox="0 0 1024 1024" version="1.1" xmlns="http://www.w3.org/2000/svg" p-id="914" width="200" height="200"><path d="M512 128a128 128 0 0 0-128 128v170.666667a128 128 0 1 0 256 0V256a128 128 0 0 0-128-128z m0-85.333333a213.333333 213.333333 0 0 1 213.333333 213.333333v170.666667a213.333333 213.333333 0 0 1-426.666666 0V256a213.333333 213.333333 0 0 1 213.333333-213.333333zM130.346667 469.333333H216.32a298.752 298.752 0 0 0 591.274667 0h86.016A384.170667 384.170667 0 0 1 554.666667 808.32V981.333333h-85.333334v-173.013333A384.170667 384.170667 0 0 1 130.346667 469.333333z" p-id="915"></path></svg>